<svg xmlns="http://www.w3.org/2000/svg" width="24" height="36" viewBox="0 0 24 36">
    <path fill="#9FB9C5" fill-rule="evenodd" d="M2.472 8.928c.192-.336 1.296-.576 1.776-.576 1.632 0 2.784 1.344 2.784 2.976 0 1.584-1.344 2.928-2.976 2.928-2.112 0-3.312-2.256-3.312-4.32 0-6.432 5.664-9.36 11.136-9.36 5.712 0 10.176 3.888 10.176 9.648 0 6.816-2.928 10.08-16.08 20.112-.912.72-1.056.96-1.056 1.2 0 .288.768.336 2.88.336h10.08c2.592 0 3.024-.432 4.464-7.776h1.344L22.824 36H.072v-1.344l11.376-12.192c3.168-3.408 5.568-7.392 5.568-12.768 0-4.992-2.976-7.536-6.432-7.536-4.992 0-8.112 4.176-8.112 6.768z"/>
</svg>
