<svg xmlns="http://www.w3.org/2000/svg" width="23" height="37" viewBox="0 0 23 37">
    <path fill="#9FB9C5" fill-rule="evenodd" d="M23.016 26.976c0 6.144-5.376 9.696-11.856 9.696-4.608 0-10.656-1.68-10.656-8.736 0-1.68 1.392-2.976 2.976-2.976a2.991 2.991 0 0 1 2.976 2.976c0 1.584-1.344 2.784-2.88 2.784-.24 0-.48 0-.72-.048 1.056 3.216 4.032 4.512 7.344 4.512 4.224 0 7.68-2.736 7.68-8.592 0-5.04-2.64-7.344-6.336-7.344-1.104 0-2.592.288-3.648.288-.384 0-.912-.288-.912-1.056 0-.72.528-1.008.912-1.008.816 0 2.544.288 3.6.288 2.832 0 5.664-3.36 5.664-8.496 0-4.992-2.928-7.104-6.288-7.104-3.168 0-6.336 1.488-7.152 4.848.24-.144.672-.24.96-.24 1.68 0 2.88 1.344 2.88 2.976 0 1.584-1.392 2.928-3.024 2.928-1.584 0-2.928-1.344-2.928-2.976 0-6.432 5.28-9.024 10.416-9.024 5.808 0 10.128 3.36 10.128 8.64 0 4.128-2.736 7.968-7.728 9.024 5.568.72 8.592 3.888 8.592 8.64z"/>
</svg>
