<svg xmlns="http://www.w3.org/2000/svg" width="64" height="63" viewBox="0 0 64 63">
    <g fill="none" fill-rule="nonzero">
        <path d="M1.667.917h60.5v60.5h-60.5z"/>
        <g fill="#F3F6F8" stroke="#333" stroke-width="2" transform="translate(-1 -1)">
            <rect width="58.5" height="17.25" x="4.667" y="43.167" rx="2"/>
            <path d="M51.417 47.75h6.25v8.083h-6.25zM40.417 47.75h6.25v8.083h-6.25zM29.417 47.75h6.25v8.083h-6.25z"/>
            <circle cx="11.917" cy="52.25" r="2.75"/>
            <rect width="58.5" height="17.25" x="5.772" y="28.622" rx="2" transform="rotate(-33 35.022 37.247)"/>
            <path d="M47.498 24.326l5.241-3.404 4.403 6.779-5.242 3.404zM38.272 30.317l5.242-3.404 4.402 6.78-5.242 3.403zM29.047 36.308l5.241-3.404 4.403 6.78-5.242 3.403z"/>
            <circle cx="16.821" cy="49.614" r="2.75" transform="rotate(-33 16.821 49.614)"/>
            <rect width="58.5" height="17.25" x="-8.347" y="23.652" rx="2" transform="rotate(-68 20.903 32.277)"/>
            <path d="M23.711 14.537l2.341-5.795 7.495 3.028-2.342 5.795zM19.59 24.736l2.342-5.795 7.494 3.028-2.341 5.795zM15.47 34.935l2.341-5.795 7.495 3.028-2.342 5.795z"/>
            <circle cx="13.087" cy="52.847" r="2.75" transform="rotate(-68 13.087 52.847)"/>
        </g>
    </g>
</svg>
