<svg xmlns="http://www.w3.org/2000/svg" width="32" height="21" viewBox="0 0 32 21">
    <g fill="none" fill-rule="nonzero">
        <path fill="#C0DBE7" d="M19.815 10.101c0 5.58-4.435 10.101-9.908 10.101C4.436 20.202 0 15.68 0 10.101 0 4.522 4.436 0 9.908 0c5.471 0 9.907 4.522 9.907 10.101z"/>
        <path fill="#FFF" d="M21.912 0a9.732 9.732 0 0 0-5.921 2.014l.008.001c.325.32.684.546.96.914l-2.061.034c-.323.332-.618.694-.895 1.07h3.635c.277.338.532.632.764 1.005h-5.058c-.185.326-.357.66-.506 1.007h6.14c.16.347.304.609.426.975h-6.93c-.11.349-.204.705-.276 1.069h7.497c.073.35.13.673.168 1.002H12.05c-.033.332-.05.67-.05 1.01h7.92c0 .358-.025.689-.061 1.01h-7.81c.034.343.084.68.15 1.01h7.484c-.078.328-.167.657-.279.998h-6.953c.105.346.233.681.373 1.008h6.154c-.17.368-.364.662-.577 1.006h-5.075c.2.354.421.691.661 1.015l3.651.055c-.311.38-.71.61-1.074.944.02.016-.582-.002-1.766-.022 1.801 1.895 4.32 3.077 7.113 3.077 5.474 0 9.91-4.522 9.91-10.1C31.822 4.521 27.387 0 21.912 0z"/>
    </g>
</svg>
