<svg xmlns="http://www.w3.org/2000/svg" width="66" height="66" viewBox="0 0 66 66">
    <g fill="#333" fill-rule="nonzero">
        <path stroke="#333" stroke-width=".5" d="M57.754 1.074l-.019.001H19.826c-4.384 0-7.95 3.566-7.95 7.95v12.922h-9.24a.75.75 0 0 0-.75.75v25.277c0 .414.336.75.75.75h9.24v4.9H1.425a.75.75 0 0 0-.75.75v2.26c0 4.571 3.719 8.29 8.29 8.29h35.1c.056 0 .106-.02.158-.032 4.141-.251 7.462-3.734 7.462-7.918V12.289h12.89a.75.75 0 0 0 .75-.75V8.645c0-4.174-3.397-7.571-7.571-7.571zM3.385 47.225V23.448h18.48v23.777H3.385zm5.58 16.2a6.798 6.798 0 0 1-6.79-6.79v-1.51h34.37v2.23a7.573 7.573 0 0 0 3.063 6.07H8.965zm41.218-54.78v2.893l.002.01v45.427c0 3.479-2.826 6.367-6.303 6.44-3.233-.127-5.837-2.806-5.837-6.06v-2.98a.75.75 0 0 0-.75-.75h-23.92v-4.9h9.24a.75.75 0 0 0 .75-.75V22.698a.75.75 0 0 0-.75-.75h-9.24V9.025a6.457 6.457 0 0 1 6.45-6.45h33.411a7.622 7.622 0 0 0-3.053 6.07zm13.642 2.144h-12.14V8.645a6.077 6.077 0 0 1 6.07-6.07l.004-.001a6.078 6.078 0 0 1 6.066 6.071v2.144z"/>
        <path stroke="#333" stroke-width=".3" d="M44.242 42.115H27.736a.75.75 0 0 0 0 1.5h16.506a.75.75 0 0 0 0-1.5zM44.242 36.737H30.814a.75.75 0 0 0 0 1.5h13.428a.75.75 0 0 0 0-1.5z"/>
        <path stroke="#333" d="M15.07 30.193L9.325 40.301h.843l5.743-10.108zM11.761 33.111c0-1.865-.903-2.918-2.272-2.918-1.293 0-2.361 1.098-2.361 3.053.015 1.971 1.068 2.949 2.287 2.949 1.263 0 2.346-1.023 2.346-3.084zm-3.58.091c0-1.233.436-2.211 1.264-2.211.917 0 1.264.993 1.264 2.181 0 1.293-.392 2.226-1.264 2.226-.828 0-1.293-.948-1.264-2.196zM15.867 34.24c-1.293 0-2.361 1.098-2.361 3.068.015 1.955 1.068 2.933 2.285 2.933 1.249 0 2.332-1.023 2.332-3.083 0-1.866-.886-2.918-2.256-2.918zm-.045 5.204c-.812 0-1.293-.947-1.279-2.196 0-1.233.452-2.211 1.279-2.211.917 0 1.263.993 1.263 2.181 0 1.293-.39 2.226-1.263 2.226z"/>
        <path stroke="#333" stroke-width=".5" d="M36.632 7.693c-6.263 0-11.358 5.096-11.358 11.359s5.096 11.359 11.358 11.359c6.264 0 11.359-5.096 11.359-11.359.001-6.263-5.095-11.359-11.359-11.359zm0 21.219c-5.436 0-9.858-4.423-9.858-9.859 0-5.437 4.423-9.859 9.858-9.859 5.437 0 9.859 4.423 9.859 9.859.001 5.436-4.422 9.859-9.859 9.859z"/>
        <path d="M37.459 17.831h-.055V14.38a5.917 5.917 0 0 1 2.626 1.065l1.193-1.689c-1.2-.82-2.473-1.279-3.82-1.377v-.936h-1.175v.918c-1.187.062-2.151.429-2.892 1.102-.741.674-1.111 1.54-1.111 2.599 0 1.059.321 1.857.964 2.396.643.539 1.655.973 3.039 1.303v3.562c-1.09-.171-2.148-.704-3.176-1.597l-1.341 1.597c1.334 1.163 2.84 1.83 4.517 2.001v1.341h1.175v-1.322c1.249-.061 2.252-.428 3.012-1.102.759-.673 1.138-1.545 1.138-2.616 0-1.071-.33-1.888-.992-2.451-.66-.565-1.694-1.012-3.102-1.343zm-1.23-.33c-.686-.221-1.151-.45-1.395-.689-.245-.239-.367-.563-.367-.973 0-.41.156-.753.469-1.028.312-.275.743-.438 1.294-.487v3.177h-.001zm2.571 5.362c-.343.282-.808.453-1.396.514v-3.305c.735.221 1.236.456 1.506.707.269.251.404.59.404 1.019 0 .428-.172.783-.514 1.065z"/>
    </g>
</svg>
