<svg xmlns="http://www.w3.org/2000/svg" width="66" height="65" viewBox="0 0 66 65">
    <g fill="none" fill-rule="nonzero" transform="translate(0 -1)">
        <path d="M0 0h66v66H0z"/>
        <path fill="#333" d="M62.799 25.74L34.846 2.754c-1.287-1.064-3.492-1.084-4.798-.033L1.463 25.791a3.306 3.306 0 0 0-.488 4.646c1.097 1.362 3.278 1.595 4.64.493l4.329-3.498v28.096c0 1.82 1.48 3.3 3.3 3.3h7.7c1.82 0 3.3-1.48 3.3-3.3v-22a1.1 1.1 0 0 1 1.1-1.1h15.4c.605 0 1.1.493 1.1 1.1v22c0 1.82 1.48 3.3 3.3 3.3h7.7c1.82 0 3.3-1.48 3.3-3.3V28.952l2.464 2.026c.583.48 1.318.744 2.068.744 1.003 0 1.934-.453 2.625-1.329 1.12-1.421.895-3.509-.502-4.653zm-8.855 3.082V55.53c0 .607-.495 1.1-1.1 1.1h-7.7c-.596 0-1.1-.504-1.1-1.1v-22c0-1.82-1.48-3.3-3.3-3.3h-15.4c-1.82 0-3.3 1.48-3.3 3.3v22a1.1 1.1 0 0 1-1.1 1.1h-7.7a1.1 1.1 0 0 1-1.1-1.1V27.324c0-.871.61-2.152 1.285-2.706l17.868-14.436c.506-.412 1.514-.412 2.022.008l19.342 15.9c.671.56 1.283 1.857 1.283 2.732zm7.561.295c-.31.392-.794.737-1.502.16l-5.947-4.888-.013-.013L34.716 8.488c-.651-.535-1.51-.83-2.413-.83-.891 0-1.74.288-2.385.81L12.067 22.887c-.007.004-.013.015-.02.022l-7.814 6.314c-.717.578-1.223.23-1.551-.172a1.1 1.1 0 0 1 .165-1.547l28.58-23.067c.51-.411 1.45-.455 2.081.069L61.402 27.44c.47.382.548 1.113.103 1.676z"/>
        <rect width="64" height="19" x="1" y="46" fill="#F3F6F8" stroke="#333" stroke-width="2" rx="2"/>
        <path fill="#333" stroke="#333" d="M7.5 45.5h1v10h-1zM13.5 45.5h1v5h-1zM26.5 45.5h1v5h-1zM38.5 45.5h1v5h-1zM51.5 45.5h1v5h-1zM20 45.5h1v10h-1zM32.5 45.5h1v10h-1zM45 45.5h1v10h-1zM57.5 45.5h1v10h-1z"/>
    </g>
</svg>
