<svg xmlns="http://www.w3.org/2000/svg" width="66" height="66" viewBox="0 0 66 66">
    <g fill="none" fill-rule="nonzero">
        <path d="M0 1h66v66H0z"/>
        <g fill="#9FB9C5">
            <path d="M31.9 44.736h2.2v2.2h-2.2z"/>
            <path d="M33 40.336a5.5 5.5 0 1 0 5.5 5.5 5.507 5.507 0 0 0-5.5-5.5zm0 8.8a3.3 3.3 0 1 1 0-6.6 3.3 3.3 0 0 1 0 6.6z"/>
            <path d="M64.9 0H1.1A1.1 1.1 0 0 0 0 1.1v50.6a1.1 1.1 0 0 0 1.1 1.1h22.693l-.178 1.17a1.1 1.1 0 0 0 1.252 1.25l1.533-.231V64.9a1.1 1.1 0 0 0 1.618.97L33 63.21l4.982 2.66a1.1 1.1 0 0 0 1.618-.97v-9.911l1.533.233a1.1 1.1 0 0 0 1.252-1.253l-.178-1.169H64.9a1.1 1.1 0 0 0 1.1-1.1V1.1A1.1 1.1 0 0 0 64.9 0zM37.4 63.066l-3.882-2.073a1.1 1.1 0 0 0-1.036 0L28.6 63.066v-8.413l.797-.12 2.716 3.691a1.1 1.1 0 0 0 1.774 0l2.715-3.691.798.12v8.413zm2.022-13.953l.564 3.71-3.71-.565a1.114 1.114 0 0 0-1.052.44L33 55.716l-2.224-3.026a1.1 1.1 0 0 0-1.053-.436l-3.71.566.565-3.71a1.1 1.1 0 0 0-.434-1.052l-3.023-2.225 3.023-2.226a1.1 1.1 0 0 0 .434-1.05l-.564-3.71 3.71.565c.404.058.809-.11 1.052-.44L33 35.956l2.224 3.024c.244.329.648.498 1.053.44l3.71-.566-.565 3.71a1.1 1.1 0 0 0 .434 1.051l3.023 2.225-3.023 2.226a1.1 1.1 0 0 0-.434 1.047zM20.25 46.2H11v-3.3a1.1 1.1 0 0 0-1.1-1.1H6.6V11h3.3A1.1 1.1 0 0 0 11 9.9V6.6h44v3.3a1.1 1.1 0 0 0 1.1 1.1h3.3v30.8h-3.3a1.1 1.1 0 0 0-1.1 1.1v3.3h-9.251c.05-.115.08-.239.087-.364a1.1 1.1 0 0 0-.448-.88l-3.692-2.717.69-4.531a1.1 1.1 0 0 0-1.253-1.253l-4.53.69-2.716-3.692a1.143 1.143 0 0 0-1.774 0l-2.715 3.693-4.531-.69a1.1 1.1 0 0 0-1.252 1.252l.69 4.53-3.693 2.718a1.1 1.1 0 0 0-.448.88c.008.125.037.249.087.364zM63.8 50.6H41.873l-.177-1.16 1.412-1.04H56.1a1.1 1.1 0 0 0 1.1-1.1V44h3.3a1.1 1.1 0 0 0 1.1-1.1v-33a1.1 1.1 0 0 0-1.1-1.1h-3.3V5.5a1.1 1.1 0 0 0-1.1-1.1H9.9a1.1 1.1 0 0 0-1.1 1.1v3.3H5.5a1.1 1.1 0 0 0-1.1 1.1v33A1.1 1.1 0 0 0 5.5 44h3.3v3.3a1.1 1.1 0 0 0 1.1 1.1h12.992l1.413 1.04-.178 1.16H2.2V2.2h61.6v48.4z"/>
            <path d="M33 17.6a4.4 4.4 0 1 0 0-8.8 4.4 4.4 0 0 0 0 8.8zm0-6.6a2.2 2.2 0 1 1 0 4.4 2.2 2.2 0 0 1 0-4.4zM26.4 19.8h13.2V22H26.4zM13.2 24.2h39.6v2.2H13.2zM13.2 28.6h39.6v2.2H13.2zM13.2 37.4h7.7v2.2h-7.7zM45.1 37.4h7.7v2.2h-7.7z"/>
        </g>
    </g>
</svg>
