<svg xmlns="http://www.w3.org/2000/svg" width="178" height="56" viewBox="0 0 178 56">
    <g fill="#FFF" fill-rule="nonzero">
        <path d="M83.77 27.011c0 1.606-.005 2.814-.014 3.624 0 .813-.043 1.798-.099 2.967a18.349 18.349 0 0 1-.266 2.573 28.356 28.356 0 0 1-.497 1.918 3.629 3.629 0 0 1-.799 1.573c-.372.36-.77.69-1.19.99a3.95 3.95 0 0 1-1.663.678 12.85 12.85 0 0 1-2.195.168l-.498-3.957c.828 0 1.392-.19 1.687-.572.464-.602.745-2.262.844-4.98.052-1.556.076-4.535.075-8.936H93.15v17.976h-4.865V27.01H83.77zM101.897 26.912v2.926h5.703v3.868h-5.703v3.02h6.01v3.854H96.839V23.057h11.068v3.855zM124.508 28.8a5.06 5.06 0 0 0-1.92-1.502 5.97 5.97 0 0 0-2.469-.525c-1.517 0-2.753.489-3.708 1.467a4.993 4.993 0 0 0-1.442 3.616 4.803 4.803 0 0 0 1.445 3.61c.964.926 2.22 1.39 3.771 1.39a5.856 5.856 0 0 0 4.323-1.945v5.735c-1.942.569-3.417.854-4.424.856a10.713 10.713 0 0 1-7.238-2.703c-2.063-1.772-3.094-4.086-3.094-6.943a9.082 9.082 0 0 1 2.839-6.736 10.78 10.78 0 0 1 7.34-2.985 12.42 12.42 0 0 1 4.577.927v5.739zM146.642 31.474c0 2.942-.953 5.349-2.86 7.222-1.906 1.873-4.334 2.808-7.285 2.807-2.952 0-5.381-.936-7.287-2.807-1.907-1.871-2.86-4.279-2.857-7.222a8.59 8.59 0 0 1 1.446-4.831 9.633 9.633 0 0 1 3.746-3.34 11.123 11.123 0 0 1 9.927 0 9.653 9.653 0 0 1 3.724 3.34 8.59 8.59 0 0 1 1.446 4.831zm-15.326.025a5.33 5.33 0 0 0 1.506 3.869 5.125 5.125 0 0 0 3.67 1.551c1.38 0 2.702-.559 3.67-1.551a5.333 5.333 0 0 0 1.508-3.869 4.473 4.473 0 0 0-1.533-3.35 5.327 5.327 0 0 0-7.298 0 4.47 4.47 0 0 0-1.523 3.35zM154.772 27.011v3.624c0 .813-.043 1.798-.099 2.967a18.349 18.349 0 0 1-.266 2.573 28.356 28.356 0 0 1-.498 1.918 3.656 3.656 0 0 1-.798 1.573c-.372.36-.77.69-1.19.99a3.95 3.95 0 0 1-1.663.678c-.726.119-1.46.175-2.196.168l-.497-3.957c.828 0 1.39-.19 1.687-.572.463-.602.744-2.262.844-4.98.05-1.556.074-4.535.074-8.936h13.996v17.976h-4.876V27.01h-4.518zM173.389 35.047l-3.97-5.534-2.486 1.657 2.778 3.877-2.778 3.873 2.486 1.66 3.97-5.533z"/>
        <path d="M178 35.047l-3.973-5.534-2.483 1.657 2.779 3.877-2.779 3.873 2.483 1.66L178 35.047zM69.171 35.047l3.97-5.534 2.486 1.657-2.779 3.877 2.779 3.873-2.486 1.66-3.97-5.533z"/>
        <path d="M63.637 35.047l3.973-5.534 2.483 1.657-2.779 3.877 2.78 3.873-2.484 1.66-3.973-5.533zM69.171 49.797h-.51v-3.24h-1.75v3.246h-.507v-3.689h2.767zM71.937 47.227c.001.155-.022.308-.068.452a1.088 1.088 0 0 1-.188.366.99.99 0 0 1-.354.288c-.166.07-.341.102-.516.095h-.33v1.375h-.388v-3.689h.734a1.61 1.61 0 0 1 .44.055.888.888 0 0 1 .323.176.965.965 0 0 1 .256.357c.065.163.096.343.091.525zm-.404 0a.97.97 0 0 0-.053-.332.532.532 0 0 0-.372-.34 1.278 1.278 0 0 0-.304-.032h-.322V48h.265c.127.005.255-.012.38-.049a.498.498 0 0 0 .241-.17.787.787 0 0 0 .126-.242 1.13 1.13 0 0 0 .039-.3v-.011zM74.328 46.594c.127.17.222.367.279.579.13.51.13 1.053 0 1.564a1.64 1.64 0 0 1-.279.581c-.12.161-.273.287-.445.366-.18.08-.37.12-.563.119a1.319 1.319 0 0 1-.57-.122 1.202 1.202 0 0 1-.438-.363 1.664 1.664 0 0 1-.276-.578 2.83 2.83 0 0 1-.098-.78c-.003-.266.03-.53.098-.784.06-.212.154-.41.279-.582a1.18 1.18 0 0 1 .435-.357 1.392 1.392 0 0 1 1.145 0c.166.081.314.203.433.357zm-.056 1.365c.003-.21-.02-.42-.066-.623a1.38 1.38 0 0 0-.191-.448.8.8 0 0 0-.299-.277.838.838 0 0 0-.393-.092.82.82 0 0 0-.397.09.835.835 0 0 0-.298.276c-.09.135-.155.29-.19.454-.047.202-.07.41-.067.617-.024.379.068.755.26 1.066.17.235.423.371.692.371a.859.859 0 0 0 .692-.37 1.86 1.86 0 0 0 .257-1.064zM78.394 49.803h-.509v-2.928l-1.74 2.928h-.518v-3.689h.512v2.884l1.716-2.884h.539z"/>
        <path d="M80.845 48.017a.917.917 0 0 1 .228.26.806.806 0 0 1 .087.399.916.916 0 0 1-.11.443 1.14 1.14 0 0 1-.302.358c-.143.11-.31.192-.492.242a2.387 2.387 0 0 1-.643.084 3.474 3.474 0 0 1-.705-.067 3.48 3.48 0 0 1-.514-.137v-.533h.038c.168.095.348.17.538.226.206.063.424.096.643.095.135 0 .27-.015.402-.044a.8.8 0 0 0 .534-.383.672.672 0 0 0 .06-.31.608.608 0 0 0-.073-.306.557.557 0 0 0-.216-.201 1.056 1.056 0 0 0-.321-.11 2.304 2.304 0 0 0-.402-.033h-.435v-.396h.377c.246.01.49-.042.701-.15a.482.482 0 0 0 .267-.441.393.393 0 0 0-.064-.226.519.519 0 0 0-.184-.157.935.935 0 0 0-.273-.086 1.804 1.804 0 0 0-.322-.022c-.117 0-.233.01-.347.033-.11.022-.217.051-.322.087-.086.028-.17.063-.25.103l-.178.092h-.035v-.516a3.344 3.344 0 0 1 1.151-.206c.184-.003.368.013.547.047.149.029.29.08.418.15.131.07.241.166.322.28a.689.689 0 0 1 .103.379.685.685 0 0 1-.222.505 1.11 1.11 0 0 1-.582.279v.036c.103.016.203.042.299.078.1.036.194.086.277.148z"/>
        <path d="M83.926 48.67c.003.167-.036.334-.115.487a1.025 1.025 0 0 1-.317.346c-.145.106-.311.184-.49.23a2.725 2.725 0 0 1-.677.07h-1.166v-3.688h1.077c.218-.004.435.005.652.026.145.018.286.06.416.124a.74.74 0 0 1 .318.288c.07.125.103.264.098.404a.744.744 0 0 1-.114.467c-.105.14-.25.252-.42.323v.02c.223.047.422.162.563.326a.87.87 0 0 1 .175.576zm-.754-1.653a.514.514 0 0 0-.047-.23.344.344 0 0 0-.16-.156.786.786 0 0 0-.291-.081 4.36 4.36 0 0 0-.445-.017h-.519v1.081h.627c.125.003.25-.005.375-.023a.875.875 0 0 0 .248-.098.419.419 0 0 0 .174-.19.686.686 0 0 0 .045-.286h-.007zm.194 1.672a.794.794 0 0 0-.066-.343.546.546 0 0 0-.264-.227.997.997 0 0 0-.28-.081c-.102 0-.245-.017-.432-.017h-.614v1.363h.442c.187.003.374-.008.56-.031a.92.92 0 0 0 .359-.124.68.68 0 0 0 .222-.22c.055-.099.082-.209.08-.32h-.007zM86.317 46.593c.125.17.22.367.277.58.07.254.103.52.1.786.002.263-.03.525-.098.778a1.64 1.64 0 0 1-.279.581c-.12.161-.274.287-.447.366-.178.08-.369.12-.56.119a1.318 1.318 0 0 1-.573-.122 1.195 1.195 0 0 1-.435-.363 1.625 1.625 0 0 1-.279-.578 2.932 2.932 0 0 1-.095-.781 2.8 2.8 0 0 1 .098-.784c.057-.213.151-.41.276-.582.12-.156.27-.278.438-.357.18-.084.374-.126.57-.122.197-.003.392.04.575.125.165.08.313.202.432.354zm-.056 1.366a2.63 2.63 0 0 0-.068-.623 1.38 1.38 0 0 0-.189-.45.838.838 0 0 0-.298-.276.846.846 0 0 0-.396-.091.816.816 0 0 0-.401.094.862.862 0 0 0-.301.277c-.088.136-.152.29-.189.454-.046.201-.068.41-.066.617-.022.378.069.754.257 1.067a.86.86 0 0 0 .694.37.86.86 0 0 0 .693-.37 1.86 1.86 0 0 0 .264-1.07zM90.383 50.725h-.386v-.861h-1.99v.861h-.39v-1.294h.165c.205-.439.35-.915.432-1.411.113-.626.168-1.265.163-1.906h1.712v3.317h.29l.004 1.294zm-.697-1.294V46.55h-.921a9.641 9.641 0 0 1-.185 1.656c-.083.43-.218.844-.4 1.226h1.506zM92.021 49.8a1.806 1.806 0 0 1-.66-.116 1.393 1.393 0 0 1-.517-.348 1.6 1.6 0 0 1-.34-.579 2.421 2.421 0 0 1-.12-.795 2.361 2.361 0 0 1 .117-.78 1.62 1.62 0 0 1 .34-.578c.143-.157.32-.282.517-.365a1.72 1.72 0 0 1 .67-.125 2.213 2.213 0 0 1 .875.184c.082.036.162.075.242.117v.57h-.032l-.166-.136a1.518 1.518 0 0 0-.549-.281 1.322 1.322 0 0 0-.38-.05 1.055 1.055 0 0 0-.808.37 1.27 1.27 0 0 0-.24.456c-.06.2-.09.409-.086.618-.006.213.025.425.091.628.053.162.136.313.246.446.096.119.22.214.36.278.138.059.287.09.438.089.13 0 .262-.016.388-.05.111-.03.219-.072.32-.125.14-.078.27-.171.386-.279h.037v.557l-.226.105a1.877 1.877 0 0 1-.26.098 4.372 4.372 0 0 1-.285.078c-.119.015-.238.02-.358.014zM94.306 49.797v-3.245H93.15v-.438h2.767v.438h-1.153v3.251zM99.606 48.67c.004.167-.035.334-.115.487a1.025 1.025 0 0 1-.318.346 1.432 1.432 0 0 1-.492.23c-.222.051-.45.075-.678.07H96.84v-3.688h1.082c.217-.004.435.005.651.026.146.019.287.06.417.124a.732.732 0 0 1 .42.692.754.754 0 0 1-.153.464.967.967 0 0 1-.42.323v.02a.998.998 0 0 1 .563.326c.139.167.211.37.207.58zm-.754-1.653a.514.514 0 0 0-.047-.23.359.359 0 0 0-.16-.156.804.804 0 0 0-.292-.081 4.451 4.451 0 0 0-.445-.017h-.518v1.08h.613c.126.003.251-.004.375-.022a.876.876 0 0 0 .249-.098.419.419 0 0 0 .174-.19.687.687 0 0 0 .051-.286zm.191 1.672a.794.794 0 0 0-.067-.343.519.519 0 0 0-.264-.227.967.967 0 0 0-.28-.081c-.101 0-.244-.018-.429-.018h-.613v1.364h.438c.188.003.375-.008.56-.031a.886.886 0 0 0 .36-.124.694.694 0 0 0 .225-.22c.052-.1.076-.21.07-.32zM101.996 46.593c.127.17.222.367.279.58.069.254.102.52.098.786.003.263-.03.525-.096.778a1.685 1.685 0 0 1-.28.581c-.121.16-.274.286-.446.366-.179.08-.37.12-.563.119a1.318 1.318 0 0 1-.57-.122 1.202 1.202 0 0 1-.437-.363 1.665 1.665 0 0 1-.277-.578 2.831 2.831 0 0 1-.097-.781 2.8 2.8 0 0 1 .097-.784c.06-.212.155-.41.28-.582a1.18 1.18 0 0 1 .435-.357c.18-.084.374-.126.57-.122.197-.003.394.04.577.125.164.08.311.202.43.354zm-.056 1.366c.003-.21-.02-.42-.066-.623a1.381 1.381 0 0 0-.191-.45.8.8 0 0 0-.298-.276.837.837 0 0 0-.394-.091.819.819 0 0 0-.396.088.835.835 0 0 0-.299.277c-.09.135-.154.29-.19.454-.047.202-.069.41-.066.618-.024.378.067.755.259 1.066.17.235.424.37.692.37a.859.859 0 0 0 .692-.37 1.86 1.86 0 0 0 .264-1.063h-.007zM106.984 49.803h-.508v-2.928l-1.74 2.928h-.518v-3.689h.508v2.884l1.717-2.884h.541zM111.596 49.797h-.506v-3.24h-1.752v3.246h-.509v-3.689h2.767zM114.362 47.227c0 .155-.022.308-.068.452a1.128 1.128 0 0 1-.185.366.976.976 0 0 1-.357.288 1.22 1.22 0 0 1-.516.095h-.33v1.375h-.388v-3.689h.734a1.61 1.61 0 0 1 .44.055.851.851 0 0 1 .323.176.965.965 0 0 1 .256.357c.064.163.096.343.091.525zm-.404 0a.972.972 0 0 0-.05-.332.557.557 0 0 0-.16-.23.602.602 0 0 0-.215-.11 1.278 1.278 0 0 0-.304-.032h-.322V48h.265c.128.005.256-.012.381-.049a.503.503 0 0 0 .24-.17.741.741 0 0 0 .126-.242c.027-.096.04-.198.039-.3v-.011zM116.742 46.599c.13.167.227.362.29.573.068.255.101.52.097.787.003.263-.029.525-.095.778-.058.213-.153.41-.28.581a1.19 1.19 0 0 1-.447.366c-.18.08-.37.12-.563.119a1.32 1.32 0 0 1-.57-.122 1.222 1.222 0 0 1-.439-.363 1.664 1.664 0 0 1-.276-.578 2.93 2.93 0 0 1-.096-.781 2.88 2.88 0 0 1 .096-.784c.06-.212.154-.41.279-.582a1.18 1.18 0 0 1 .435-.357 1.29 1.29 0 0 1 .57-.122c.199-.003.395.04.578.125.162.084.306.207.421.36zm-.058 1.365c.002-.21-.02-.42-.066-.623a1.38 1.38 0 0 0-.189-.449.824.824 0 0 0-.301-.277.914.914 0 0 0-.79 0 .856.856 0 0 0-.3.277c-.09.136-.154.29-.19.455-.046.201-.069.409-.066.617-.022.378.07.754.26 1.066a.86.86 0 0 0 .692.371.86.86 0 0 0 .693-.37 1.86 1.86 0 0 0 .257-1.067zM120.814 50.725h-.384v-.861h-1.99v.861h-.388v-1.294h.168c.203-.44.349-.916.432-1.411.112-.626.167-1.265.163-1.906h1.713v3.317h.29l-.004 1.294zm-.698-1.294V46.55h-.922a9.633 9.633 0 0 1-.185 1.656c-.083.43-.218.844-.4 1.226h1.507zM120.819 49.803l1.114-3.689h.54l1.112 3.69h-.462l-.3-1.03h-1.265l-.3 1.03h-.44zm1.885-1.442l-.517-1.73-.518 1.73h1.035zM129.12 49.803h-.604l-1.23-1.692h-.245v1.692h-.484v-1.692h-.243l-1.23 1.692h-.576l1.39-1.9a1.095 1.095 0 0 1-.288-.261 1.724 1.724 0 0 1-.234-.52 1.245 1.245 0 0 0-.21-.441.593.593 0 0 0-.433-.121h-.098v-.437h.127a1.13 1.13 0 0 1 .64.158c.18.15.312.35.378.575.023.072.05.144.075.213l.064.167c.054.15.143.284.26.392a.639.639 0 0 0 .366.146v-1.66h.496v1.666a.72.72 0 0 0 .384-.144.952.952 0 0 0 .269-.4c.031-.075.057-.144.08-.21.024-.066.044-.124.058-.17a1.15 1.15 0 0 1 .381-.575c.191-.117.414-.174.638-.161h.127v.446h-.098a.578.578 0 0 0-.433.124 1.112 1.112 0 0 0-.214.437c-.049.177-.13.344-.24.492-.08.102-.178.19-.288.262l1.414 1.922z"/>
        <path d="M128.197 49.803l1.113-3.689h.54l1.114 3.69h-.463l-.3-1.03h-1.263l-.3 1.03h-.441zm1.883-1.442l-.516-1.73-.517 1.73h1.033zM136.49 49.803h-.43V46.63l-.843 2.164h-.252l-.833-2.164v3.173h-.401v-3.689h.585l.806 2.054.777-2.054h.598zM136.497 49.8v-3.686h1.843v.444h-1.449v1.009h1.352v.432h-1.35v1.369h1.449v.435zM140.418 49.797v-3.245h-1.154v-.438h2.767v.438h-1.156v3.251zM142.031 49.803l1.113-3.689h.539l1.115 3.69h-.465l-.3-1.03h-1.259l-.299 1.03h-.444zm1.882-1.442l-.517-1.73-.516 1.73h1.033zM147.557 49.783h-.449v-3.21h-1.136c0 .183 0 .363-.019.54-.018.176 0 .33-.018.47 0 .346-.032.63-.058.856-.02.193-.054.384-.103.57a1.203 1.203 0 0 1-.322.59.729.729 0 0 1-.219.153.674.674 0 0 1-.264.051H144.798v-.49h.116c.052-.001.104-.01.153-.03a.278.278 0 0 0 .119-.082 1.15 1.15 0 0 0 .226-.585c.058-.377.091-.759.1-1.141 0-.16.009-.371.024-.633 0-.266.014-.505.019-.728h2.01l-.008 3.67zM151.254 49.783h-.449v-3.21h-1.136c0 .183 0 .363-.019.54-.018.176 0 .33-.018.47-.013.345-.032.63-.058.856-.02.193-.054.384-.103.57a1.49 1.49 0 0 1-.143.36c-.05.086-.112.163-.182.231a.653.653 0 0 1-.488.203H148.487v-.49h.116c.052-.001.104-.01.153-.03a.297.297 0 0 0 .119-.082 1.15 1.15 0 0 0 .227-.585c.055-.378.089-.759.1-1.141 0-.16.016-.371.02-.634.006-.262.017-.504.022-.727h2.01v3.669zM154.564 46.6c.127.167.223.362.281.573.13.51.13 1.053 0 1.564a1.64 1.64 0 0 1-.279.581c-.12.16-.273.286-.445.366-.179.08-.37.12-.562.119a1.319 1.319 0 0 1-.57-.122 1.202 1.202 0 0 1-.438-.363 1.664 1.664 0 0 1-.277-.578 2.83 2.83 0 0 1-.097-.78c-.005-.266.028-.53.097-.784.06-.212.155-.41.28-.582a1.18 1.18 0 0 1 .435-.357 1.392 1.392 0 0 1 1.144 0c.166.083.313.207.43.363zm-.056 1.365c.002-.21-.02-.42-.066-.623a1.436 1.436 0 0 0-.191-.449.8.8 0 0 0-.299-.277.838.838 0 0 0-.393-.091.82.82 0 0 0-.397.089.835.835 0 0 0-.298.276c-.09.136-.155.29-.19.455-.047.201-.07.409-.067.617-.024.378.068.754.26 1.066.17.234.423.37.692.37a.859.859 0 0 0 .692-.37 1.86 1.86 0 0 0 .257-1.063z"/>
        <path d="M157.695 49.797h-.507v-3.24h-1.738v3.246h-.507v-3.689h2.767zM160.476 47.227c.001.155-.022.308-.068.452a1.088 1.088 0 0 1-.188.366.99.99 0 0 1-.354.288c-.166.07-.341.102-.516.095h-.33v1.375h-.388v-3.689h.734c.148-.002.296.016.44.055a.889.889 0 0 1 .323.176.993.993 0 0 1 .256.357c.064.163.095.343.091.525zm-.404 0a.97.97 0 0 0-.053-.332.532.532 0 0 0-.372-.34 1.278 1.278 0 0 0-.304-.032h-.322V48h.267c.128.005.255-.012.38-.049a.498.498 0 0 0 .242-.17.787.787 0 0 0 .125-.242 1.13 1.13 0 0 0 .037-.3v-.011zM163.789 46.6c.126.168.22.363.279.573.068.255.101.52.097.786a2.94 2.94 0 0 1-.095.778 1.685 1.685 0 0 1-.281.581c-.12.16-.273.286-.445.366-.18.08-.37.12-.563.119a1.319 1.319 0 0 1-.57-.122 1.202 1.202 0 0 1-.438-.363 1.664 1.664 0 0 1-.276-.578 2.83 2.83 0 0 1-.098-.78c-.003-.266.03-.53.098-.784.06-.212.154-.41.279-.582a1.18 1.18 0 0 1 .435-.357 1.392 1.392 0 0 1 1.145 0c.166.083.314.207.433.363zm-.056 1.365c.002-.21-.02-.42-.066-.623a1.38 1.38 0 0 0-.191-.449.8.8 0 0 0-.299-.277.838.838 0 0 0-.393-.091.82.82 0 0 0-.397.089.835.835 0 0 0-.298.276c-.09.136-.155.29-.19.455-.047.201-.07.409-.067.617-.023.378.068.754.26 1.066.17.234.423.37.692.37a.859.859 0 0 0 .692-.37c.188-.312.278-.686.257-1.063z"/>
        <path d="M166.933 49.803h-.638l-1.336-1.69h-.294v1.69h-.5v-3.689h.5v1.664c.169.001.333-.05.47-.147a.965.965 0 0 0 .294-.392c.032-.075.059-.144.082-.21a7.99 7.99 0 0 1 .062-.17c.065-.227.2-.428.384-.578.195-.117.422-.174.65-.161h.155v.438h-.126a.625.625 0 0 0-.432.118c-.11.13-.187.281-.226.445a1.431 1.431 0 0 1-.232.478 1.338 1.338 0 0 1-.311.272l1.498 1.932zM166.933 49.803l1.113-3.689h.54l1.113 3.69h-.462l-.3-1.03h-1.263l-.3 1.03h-.441zm1.883-1.442l-.517-1.73-.516 1.73h1.033zM170.854 49.797v-3.245H169.7v-.438h2.767v.438h-1.154v3.251zM172.466 49.803l1.114-3.689h.54l1.113 3.69h-.462l-.3-1.03h-1.263l-.3 1.03h-.442zm1.884-1.442l-.517-1.73-.517 1.73h1.034zM15.989 33.076a26.152 26.152 0 0 1 .107-23.997c.226-.472.481-.928.764-1.367a13.252 13.252 0 0 1 4.84-4.45 16.794 16.794 0 0 0-2.858-.495h-.024C13.224 5.915 9.285 11.396 8.52 17.78a32.344 32.344 0 0 0-.22 3.773c0 13.753 8.667 25.375 20.572 29.172l2.485-1.353c-8.226-1.251-14.556-7.964-15.37-16.296z"/>
        <path d="M21.305 18.257a23.617 23.617 0 0 1 2.87-10.909 11.457 11.457 0 0 1 1.649-2.455c-.238-.148-.475-.29-.7-.418a15.559 15.559 0 0 0-1.617-.786c-3.653 2.98-6.111 7.116-6.69 11.768a28.907 28.907 0 0 0 .396 9.445 18.51 18.51 0 0 1 3.956-6.506c.044-.049.091-.093.136-.14z"/>
        <path d="M49.803 27.995l-1.84-.701c.045.498.074 1.004.088 1.513l-8.143 3.792c0-.163.016-.758.016-.921 0-3.93-.523-7.968-1.83-11.439a31.558 31.558 0 0 0-3.919-7.327h-.206C24.29 12.912 16.6 20.74 16.6 30.4a17.482 17.482 0 0 0 9.664 15.701 17.554 17.554 0 0 0 18.39-1.653 17.467 17.467 0 0 0 6.697-17.17l-1.133.535"/>
        <path d="M30.252 3.275a18.425 18.425 0 0 0-1.341-.649l-.139-.063c-6.12-2.582-12.598-1.366-13.05-1.281-.013.068-.027.137-.043.208.71-.03 1.996.06 2.527.101a17.22 17.22 0 0 1 7.697 2.525 31.164 31.164 0 0 1 13.156 15.81 31.211 31.211 0 0 1 1.966 10.952v.48l6.011-2.613c-.78-10.859-7.144-20.517-16.779-25.464"/>
        <path d="M50.447 27.666l4.89-2.068C54.62 15.966 48.819 7.4 40.035 3.01c-.403-.213-.824-.4-1.222-.576l-.126-.056C33.105.088 27.202 1.166 26.785 1.239c0 .062-.025.123-.039.183.648-.025 1.82.056 2.306.091 2.162.171 4.265.776 6.178 1.777l.838.471a28.18 28.18 0 0 1 5.724 4.407s7.59 6.57 8.655 19.5"/>
        <path d="M58.456 23.977l4.259-1.853C62.095 13.49 57.041 5.81 49.39 1.876a13.52 13.52 0 0 0-1.063-.515l-.112-.052C43.353-.746 38.211.213 37.85.292c0 .055-.025.11-.036.165.566-.022 1.586.05 2.007.082a13.67 13.67 0 0 1 6.116 2.006A24.589 24.589 0 0 1 50.918 6.5s6.611 5.887 7.538 17.48M8.782 9.396a13.917 13.917 0 0 1 1.612-2.114 16.476 16.476 0 0 1 6.719-4.515 17.282 17.282 0 0 0-3.634.468c-.924.221-1.827.52-2.7.892C4.906 7.559 1.004 13.487.231 20.153A35.937 35.937 0 0 0 0 24.184c0 14.688 8.879 27.1 21.074 31.153l5.672-3.217C18.46 49.8 11.59 44.098 7.881 36.465a28.97 28.97 0 0 1-.517-24.241c.328-.852.73-1.674 1.2-2.458.07-.124.144-.248.218-.37"/>
        <path d="M8.3 9.223c.532-.984 1.15-1.91 1.845-2.767a15.151 15.151 0 0 0-1.844 2.767M8.3 9.223c-.361.882-.67 1.808-.922 2.767.155-.522.318-1.03.489-1.522.131-.42.277-.831.434-1.218"/>
    </g>
</svg>
