<svg xmlns="http://www.w3.org/2000/svg" width="25" height="25" viewBox="0 0 25 25">
    <g fill="#9FB9C5" fill-rule="nonzero" stroke="#0F506F">
        <path d="M12.151 18.092c1.465 0 2.841-.57 3.877-1.606a5.447 5.447 0 0 0 1.606-3.877c0-1.464-.57-2.841-1.606-3.877a5.447 5.447 0 0 0-3.877-1.606c-1.464 0-2.84.57-3.876 1.606a5.488 5.488 0 0 0 0 7.754 5.446 5.446 0 0 0 3.876 1.606zm0-9.901c1.18 0 2.29.46 3.125 1.294a4.39 4.39 0 0 1 1.294 3.125c0 1.18-.46 2.29-1.294 3.124a4.39 4.39 0 0 1-3.125 1.295 4.39 4.39 0 0 1-3.124-1.295 4.424 4.424 0 0 1 0-6.249 4.389 4.389 0 0 1 3.124-1.294z"/>
        <path d="M23.19 23.116h-6.183a11.573 11.573 0 0 0 3.326-2.325c4.511-4.511 4.511-11.852 0-16.363a11.495 11.495 0 0 0-8.182-3.39c-3.09 0-5.996 1.204-8.181 3.39-4.511 4.511-4.511 11.851 0 16.363a11.495 11.495 0 0 0 8.181 3.389H23.19a.532.532 0 0 0 0-1.064zM12.151 2.103c2.807 0 5.445 1.092 7.43 3.077 4.096 4.096 4.096 10.762 0 14.859a10.44 10.44 0 0 1-7.43 3.077 10.44 10.44 0 0 1-7.43-3.077c-4.096-4.097-4.096-10.763 0-14.86a10.438 10.438 0 0 1 7.43-3.076z"/>
    </g>
</svg>
