<svg xmlns="http://www.w3.org/2000/svg" width="15" height="16" viewBox="0 0 15 16">
    <path fill="#0F506F" fill-rule="nonzero" d="M4.697 15.877c-1.23 0-2.38-.472-3.261-1.354a4.468 4.468 0 0 1-1.354-3.22c0-1.15.451-2.236 1.272-3.036l7.282-7.18c.636-.636 1.497-.984 2.44-.984.986 0 1.93.369 2.586 1.025.656.657 1.046 1.6 1.046 2.585a3.33 3.33 0 0 1-1.005 2.42l-6.216 6.134a2.495 2.495 0 0 1-1.784.718 2.641 2.641 0 0 1-1.847-.76 2.646 2.646 0 0 1-.78-1.846c0-.656.268-1.312.74-1.764l4.922-4.861.862.882-4.923 4.861c-.246.226-.37.554-.37.882 0 .35.144.718.41.965.268.266.616.41.986.41.348 0 .676-.123.923-.37l6.195-6.133c.41-.41.635-.943.635-1.538 0-.657-.246-1.272-.677-1.703-.43-.41-1.066-.656-1.723-.656-.594 0-1.169.225-1.559.636L2.215 9.17a3.026 3.026 0 0 0-.902 2.153c0 .882.349 1.703.984 2.339a3.37 3.37 0 0 0 2.38.984c.84 0 1.62-.308 2.195-.882l6.01-5.928.862.882-.472.472-5.539 5.456c-.78.8-1.866 1.23-3.036 1.23z"/>
</svg>
