<svg xmlns="http://www.w3.org/2000/svg" width="26" height="25" viewBox="0 0 26 25">
    <g fill="#0F506F" fill-rule="nonzero" stroke="#0F506F">
        <path d="M23.714 10.768a3.501 3.501 0 0 1-.934-1.131 3.617 3.617 0 0 1 .077-1.535c.15-.857.309-1.714-.158-2.348-.468-.635-1.35-.767-2.199-.883a3.579 3.579 0 0 1-1.461-.386 3.557 3.557 0 0 1-.806-1.26c-.364-.767-.75-1.551-1.526-1.826-.776-.274-1.513.172-2.254.57-.438.29-.934.481-1.453.562a3.651 3.651 0 0 1-1.457-.557c-.742-.399-1.509-.81-2.254-.57-.746.24-1.162 1.054-1.53 1.834-.176.472-.451.902-.806 1.26a3.579 3.579 0 0 1-1.462.386c-.857.115-1.714.231-2.198.883-.484.651-.313 1.504-.15 2.335.136.499.164 1.02.081 1.53-.228.441-.548.828-.938 1.136C1.68 11.338 1 11.985 1 12.817c0 .831.681 1.478 1.286 2.048.388.307.706.693.934 1.132a3.617 3.617 0 0 1-.077 1.534c-.15.857-.309 1.714.158 2.348.468.635 1.35.768 2.199.883a3.579 3.579 0 0 1 1.461.386c.355.358.63.788.806 1.26.373.78.759 1.581 1.53 1.834.772.253 1.513-.171 2.254-.57.437-.292.93-.486 1.449-.57.52.079 1.017.269 1.457.557a4.059 4.059 0 0 0 1.792.643c.157 0 .313-.024.462-.073.776-.252 1.162-1.054 1.53-1.834.176-.472.451-.902.806-1.26a3.579 3.579 0 0 1 1.462-.386c.857-.115 1.714-.231 2.198-.882.484-.652.313-1.509.159-2.349a3.617 3.617 0 0 1-.082-1.53c.228-.435.545-.818.93-1.123.6-.57 1.286-1.217 1.286-2.048 0-.832-.681-1.479-1.286-2.049zm-.591 3.476a3.994 3.994 0 0 0-1.157 1.487 4.136 4.136 0 0 0 .055 1.946c.12.66.245 1.341 0 1.688-.244.347-.951.429-1.62.536-.653.03-1.29.217-1.855.544-.48.434-.849.976-1.076 1.582-.296.617-.6 1.251-1.024 1.388-.425.137-.999-.197-1.582-.51a4.174 4.174 0 0 0-1.864-.66 4.179 4.179 0 0 0-1.864.66c-.583.313-1.187.639-1.582.51-.394-.128-.728-.776-1.024-1.388a4.054 4.054 0 0 0-1.076-1.582 4.089 4.089 0 0 0-1.855-.544c-.669-.09-1.363-.184-1.62-.536-.258-.351-.129-1.028 0-1.688a4.131 4.131 0 0 0 .055-1.946 3.994 3.994 0 0 0-1.157-1.487c-.501-.476-1.02-.965-1.02-1.427 0-.463.519-.952 1.016-1.428A3.994 3.994 0 0 0 4.03 9.902a4.136 4.136 0 0 0-.056-1.945c-.12-.66-.244-1.342 0-1.689.245-.347.952-.429 1.62-.536a4.089 4.089 0 0 0 1.856-.544c.48-.434.848-.976 1.076-1.581.3-.618.617-1.252 1.045-1.389.429-.137.999.197 1.582.51.554.364 1.188.59 1.847.66a4.179 4.179 0 0 0 1.864-.66c.583-.317 1.187-.626 1.565-.51.377.116.728.776 1.024 1.389a4.054 4.054 0 0 0 1.076 1.581 4.089 4.089 0 0 0 1.855.544c.669.09 1.363.185 1.62.536.257.351.129 1.029 0 1.689a4.131 4.131 0 0 0-.055 1.945c.261.581.658 1.091 1.157 1.487.518.476 1.037.965 1.037 1.428 0 .462-.519.951-1.016 1.427h-.004z"/>
        <g stroke-width=".5">
            <path d="M10.857 11.888a2.143 2.143 0 1 0 0-4.286 2.143 2.143 0 0 0 0 4.286zm0-3.214a1.071 1.071 0 1 1 0 2.143 1.071 1.071 0 0 1 0-2.143zM15.143 13.495a2.143 2.143 0 1 0 0 4.286 2.143 2.143 0 0 0 0-4.286zm0 3.214a1.071 1.071 0 1 1 0-2.142 1.071 1.071 0 0 1 0 2.142zM15.984 8.234a.536.536 0 0 0-.745.14l-5.893 8.571a.536.536 0 0 0 .884.605l5.893-8.571a.536.536 0 0 0-.14-.745z"/>
        </g>
    </g>
</svg>
