<svg xmlns="http://www.w3.org/2000/svg" width="26" height="22" viewBox="0 0 26 22">
    <g fill="#0F506F" fill-rule="nonzero" stroke="#0F506F" stroke-width=".5">
        <path d="M19.415 15.478H1.527a.5.5 0 0 1-.5-.5V1.266a.5.5 0 0 1 .5-.5h17.889a.5.5 0 0 1 .5.5v13.712a.501.501 0 0 1-.501.5zm-17.388-1h16.889V1.766H2.027v12.712z"/>
        <path d="M21.165 18.6l-.039-.002-17.938-1.394a.5.5 0 0 1-.46-.542l.116-1.321a.5.5 0 1 1 .996.088l-.072.818 16.937 1.315.986-12.788-1.741-.145a.5.5 0 0 1-.456-.54.507.507 0 0 1 .54-.456l2.237.187a.499.499 0 0 1 .456.536l-1.063 13.782a.497.497 0 0 1-.499.462z"/>
        <path d="M23.137 21.234a.77.77 0 0 1-.049-.002L5.209 19.499a.5.5 0 0 1-.45-.535l.106-1.43a.492.492 0 0 1 .536-.462.5.5 0 0 1 .461.536l-.07.942 16.895 1.638 1.24-12.765-1.497-.151a.497.497 0 0 1-.447-.546.501.501 0 0 1 .547-.447l1.993.201a.5.5 0 0 1 .448.545l-1.337 13.759a.5.5 0 0 1-.497.45z"/>
    </g>
</svg>
