<svg xmlns="http://www.w3.org/2000/svg" width="23" height="25" viewBox="0 0 23 25">
    <g fill="#0F506F" fill-rule="nonzero" stroke="#0F506F" stroke-width=".3">
        <path d="M15.718 14.293c.78 0 1.417-.633 1.417-1.412V7.78c0-.779-.636-1.413-1.417-1.413H6.697c-.782 0-1.417.634-1.417 1.413v5.1c0 .78.635 1.413 1.417 1.413h9.021zm-2.259-6.795l-3.595 5.665h-1.94l3.596-5.665h1.94zm2.542.282v5.1c0 .153-.13.282-.283.282h-4.512l3.596-5.664h.916c.154 0 .283.129.283.282zm-9.587 0c0-.153.13-.282.283-.282h3.48L6.595 13.14a.285.285 0 0 1-.182-.26V7.78z"/>
        <path d="M20.471 8.047h-.334V6.603c0-3.09-2.522-5.603-5.623-5.603h-6.61c-3.1 0-5.623 2.514-5.623 5.603v1.444h-.337c-.954 0-1.73.773-1.73 1.723v2.892c0 .95.776 1.724 1.73 1.724h.337v4.801a.566.566 0 0 0 1.135 0V6.603c0-2.466 2.013-4.472 4.488-4.472h6.61c2.475 0 4.488 2.006 4.488 4.472v1.991l-.004 5.227.004 5.367c0 2.466-2.013 4.473-4.488 4.473h-4.178a.566.566 0 0 0 0 1.13h4.178c3.1 0 5.623-2.514 5.623-5.603v-4.802h.334c.954 0 1.729-.774 1.729-1.724V9.77c0-.95-.775-1.723-1.729-1.723zM1.348 12.663V9.77c0-.326.267-.592.596-.592h.337v4.078h-.337a.595.595 0 0 1-.596-.593zm19.718 0a.594.594 0 0 1-.595.592h-.334V9.178h.334c.328 0 .595.265.595.592v2.893z"/>
        <path d="M20.137 17.743v1.444c0 3.09-2.522 5.603-5.623 5.603h-6.61c-3.1 0-5.623-2.513-5.623-5.602V6.604a.566.566 0 0 1 1.135 0v12.584c0 2.465 2.013 4.472 4.488 4.472h6.61c2.475 0 4.488-2.007 4.488-4.473v-1.99l-.004-5.228.004-5.367c0-2.466-2.013-4.472-4.488-4.472h-4.178a.566.566 0 0 1 0-1.13h4.178c3.1 0 5.623 2.513 5.623 5.602v11.141z"/>
    </g>
</svg>
