<svg xmlns="http://www.w3.org/2000/svg" width="23" height="24" viewBox="0 0 23 24">
    <path fill="#0F506F" fill-rule="nonzero" stroke="#0F506F" stroke-width=".5" d="M11.809.926a.66.66 0 0 0-.649.667v3.681l-2.83-2.83a.66.66 0 1 0-.931.933l3.761 3.76v3.86L7.82 9.069 6.44 3.93a.66.66 0 1 0-1.271.34l1.035 3.867-3.188-1.84a.66.66 0 1 0-.659 1.14l3.187 1.84-3.864 1.035a.66.66 0 0 0 .34 1.274L7.16 10.21l3.341 1.928-3.341 1.929L2.02 12.69a.66.66 0 0 0-.34 1.272l3.864 1.034-3.187 1.841a.66.66 0 1 0 .66 1.14l3.187-1.84-1.035 3.867a.66.66 0 1 0 1.271.342l1.378-5.141 3.341-1.928v3.859L7.4 20.897a.66.66 0 1 0 .932.933L11.16 19v3.682a.66.66 0 1 0 1.317 0V19l2.83 2.829a.66.66 0 1 0 .931-.932l-3.76-3.761V13.28l3.34 1.929 1.376 5.135a.66.66 0 1 0 1.274-.342l-1.035-3.862 3.187 1.841a.66.66 0 1 0 .659-1.14l-3.192-1.844 3.87-1.037a.66.66 0 0 0-.166-1.298v.003a.66.66 0 0 0-.177.023l-5.141 1.378-3.34-1.929 3.342-1.928 5.139 1.377a.66.66 0 1 0 .342-1.274L18.09 9.275l3.19-1.841a.66.66 0 0 0-.366-1.233v.002a.66.66 0 0 0-.293.09l-3.187 1.841 1.035-3.864a.66.66 0 1 0-1.274-.34L15.82 9.066l-3.342 1.928V7.138l3.761-3.761a.66.66 0 1 0-.932-.932l-2.829 2.829V1.593a.66.66 0 0 0-.67-.667z" />
</svg>
