<svg xmlns="http://www.w3.org/2000/svg" width="26" height="26" viewBox="0 0 26 26">
    <path fill="#0F506F" fill-rule="nonzero" stroke="#0F506F" stroke-width=".5" d="M24.333 1h-2.666a.667.667 0 0 0-.667.667v.666h-2.667c-4.778 0-8.666 3.888-8.666 8.667v4c0 1.103-.897 2-2 2H5v-.667a.667.667 0 0 0-.667-.666H1.667a.667.667 0 0 0-.667.666v8c0 .369.298.667.667.667h2.666A.667.667 0 0 0 5 24.333v-.666h2.667c4.778 0 8.666-3.888 8.666-8.667v-4c0-1.103.897-2 2-2H21v.667c0 .368.298.666.667.666h2.666A.667.667 0 0 0 25 9.667v-8A.667.667 0 0 0 24.333 1zM3.667 17.667v6H2.333V17h1.334v.667zM21 7.667h-2.667A3.337 3.337 0 0 0 15 11v4c0 4.043-3.29 7.333-7.333 7.333H5v-4h2.667A3.337 3.337 0 0 0 11 15v-4c0-4.043 3.29-7.333 7.333-7.333H21v4zM23.667 9h-1.334V2.333h1.334V9z"/>
</svg>
