<svg xmlns="http://www.w3.org/2000/svg" width="25" height="25" viewBox="0 0 25 25">
    <path fill="#0F506F" fill-rule="evenodd" stroke="#0F506F" stroke-width=".5" d="M12.664.782a.577.577 0 0 0-.4.169L1.297 11.919a.577.577 0 0 0 .409.986h2.309v9.813c0 .63.525 1.155 1.154 1.155h4.618a.577.577 0 0 0 .578-.578v-6.927h4.618v6.927c0 .32.258.578.577.578h4.618c.63 0 1.155-.525 1.155-1.155v-9.813h2.309a.577.577 0 0 0 .408-.986L13.081.951a.577.577 0 0 0-.417-.17zm.009 1.393l9.574 9.575h-1.493a.577.577 0 0 0-.577.577v10.391h-4.04v-6.4c0-.602-.503-1.104-1.105-1.104h-4.72c-.6 0-1.103.502-1.103 1.103v6.401h-4.04v-10.39a.577.577 0 0 0-.578-.578H3.098l9.575-9.575z"/>
</svg>
