<svg xmlns="http://www.w3.org/2000/svg" width="20" height="25" viewBox="0 0 20 25">
    <path fill="#0F506F" fill-rule="nonzero" stroke="#0F506F" stroke-width=".5" d="M1.492 8.504h.482v-.482c0-.404.167-.768.433-1.033.265-.266.63-.433 1.033-.433h.492V4.598c0-.266.216-.482.482-.482H6.37c.266 0 .492.216.492.482v1.958h.482c.404 0 .778.167 1.043.433.256.265.423.63.423 1.033v.482h.492a.5.5 0 0 1 .492.492v15.14a.5.5 0 0 1-.492.492H1.492A.493.493 0 0 1 1 24.136V8.996c0-.266.216-.492.492-.492zm9.759.236a.496.496 0 0 1-.344-.6.484.484 0 0 1 .6-.345l7.073 1.899a.478.478 0 0 1 .344.59.478.478 0 0 1-.59.345l-7.083-1.89zm.256-4.89a.484.484 0 0 1-.6-.344.496.496 0 0 1 .344-.6l7.083-1.889a.478.478 0 0 1 .59.344.478.478 0 0 1-.344.59l-7.073 1.9zm-.256 2.46a.485.485 0 0 1-.482-.492c0-.266.216-.482.482-.482h7.33c.265 0 .491.216.491.482a.493.493 0 0 1-.492.492h-7.329zm-6.345.246h.974V5.09h-.974v1.466zm1.465.974H3.44a.501.501 0 0 0-.345.147.475.475 0 0 0-.137.345v.482h4.88v-.482a.483.483 0 0 0-.148-.345.483.483 0 0 0-.345-.147h-.974zm2.44 1.957H1.974v14.157H8.81V9.487z"/>
</svg>
