<svg xmlns="http://www.w3.org/2000/svg" width="24" height="24" viewBox="0 0 24 24">
    <path fill="#FFF" fill-rule="nonzero" d="M11.067 7.467c.133 0 .133 0 0 0 .133-.534.266-.8.266-1.2V6c.134-.667.134-1.2 0-1.333v-.134L11.2 4.4s0 .133-.133.133c-.267.8-.267 1.734 0 2.934zm-4 9.2c-.267.133-.534.266-.667.4-.933.8-1.6 1.733-1.733 2.133.8-.133 1.6-.933 2.4-2.533.133 0 .133 0 0 0 .133 0 0 0 0 0zm12.266-2c-.133-.134-.666-.534-2.533-.534h-.267v.134c.934.4 1.867.666 2.534.666h.4V14.8s-.134 0-.134-.133zm2-14.667H2.667A2.675 2.675 0 0 0 0 2.667v18.666C0 22.8 1.2 24 2.667 24h18.666C22.8 24 24 22.8 24 21.333V2.667C24 1.2 22.8 0 21.333 0zm-1.466 15.733a2.663 2.663 0 0 1-1.2.267c-1.067 0-2.667-.267-4-.933-2.267.266-4 .533-5.334 1.066-.133 0-.133 0-.266.134-1.6 2.8-2.934 4.133-4 4.133-.267 0-.4 0-.534-.133l-.666-.4v-.134c-.134-.266-.134-.4-.134-.666.134-.667.934-1.867 2.534-2.8.266-.134.666-.4 1.2-.667.4-.667.8-1.467 1.333-2.4.667-1.333 1.067-2.667 1.467-3.867-.534-1.6-.8-2.533-.267-4.4.133-.533.533-1.066 1.067-1.066h.266c.267 0 .534.133.8.266.934.934.534 3.067 0 4.8v.134c.534 1.466 1.334 2.666 2.134 3.466.4.267.666.534 1.2.8.666 0 1.2-.133 1.733-.133 1.6 0 2.667.267 3.067.933.133.267.133.534.133.8-.133.134-.267.534-.533.8zm-8.667-5.2c-.267.934-.8 2-1.333 3.2-.267.534-.534.934-.8 1.467h.266c1.734-.667 3.334-1.067 4.4-1.2-.266-.133-.4-.267-.533-.4-.667-.8-1.467-1.867-2-3.067z"/>
</svg>
