<svg xmlns="http://www.w3.org/2000/svg" width="46" height="17" viewBox="0 0 46 17">
    <path fill="#FFF" fill-rule="nonzero" d="M16 0l-2.547 16.152h4.07L20.068 0H16zm12.277 6.58c-1.422-.716-2.294-1.2-2.294-1.932C26 3.982 26.72 3.3 28.328 3.3a6.969 6.969 0 0 1 3.032.598l.37.168.553-3.38a10.103 10.103 0 0 0-3.654-.665c-4.02 0-6.85 2.13-6.867 5.177-.033 2.248 2.026 3.495 3.568 4.244 1.574.768 2.11 1.265 2.11 1.947-.017 1.048-1.273 1.53-2.445 1.53-1.624 0-2.496-.248-3.82-.832l-.536-.249-.569 3.513c.956.433 2.715.814 4.54.833 4.272 0 7.051-2.097 7.086-5.344.014-1.781-1.072-3.145-3.419-4.26zM42.718.05h-3.15c-.97 0-1.707.284-2.127 1.3l-6.046 14.802h4.271l1.177-3.205h4.78l.61 3.218H46L42.718.05zm-4.69 9.663c.082.008 1.64-5.232 1.64-5.232l1.24 5.232h-2.88zM10.052 0L6.064 10.974 5.629 8.81C4.892 6.313 2.58 3.6 0 2.25l3.652 13.885h4.307l6.4-16.134h-4.307V0z"/>
</svg>
